<svg width="24" height="24" viewBox="0 0 24 24" fill="none" xmlns="http://www.w3.org/2000/svg">
<path d="M10.9399 0.070323C9.6602 0.267199 8.51645 0.876574 7.62114 1.82814C6.63677 2.87345 6.12583 4.08282 6.05552 5.53126C5.95708 7.55626 6.95083 9.4922 8.66645 10.6125C9.5102 11.1656 10.3211 11.4469 11.3055 11.5266C13.129 11.6672 14.6852 11.0953 15.9415 9.81564C16.9399 8.80314 17.4461 7.69689 17.568 6.28595C17.7368 4.40157 17.0243 2.64845 15.604 1.42032C14.6852 0.632823 13.8415 0.239073 12.6743 0.070323C12.1118 -0.00936413 11.4555 -0.0140514 10.9399 0.070323Z" fill="white"/>
<path d="M6.68367 11.6297C4.56492 11.8547 3.09305 13.3735 2.40867 16.0547C1.95398 17.8406 1.8368 19.9875 2.12742 21.1641C2.36648 22.1063 3.1493 23.0625 4.05398 23.5219C4.4618 23.7281 5.04773 23.8969 5.53992 23.9531C5.83055 23.9906 8.04305 24 12.2759 23.9906L18.5805 23.9766L18.979 23.8641C20.4602 23.4609 21.4727 22.4672 21.843 21.0703C22.0352 20.3438 22.0118 18.6094 21.7868 17.2406C21.2946 14.1938 20.0477 12.3656 18.0743 11.7938C17.6243 11.6625 16.818 11.5641 16.579 11.611C16.3493 11.6531 16.0305 11.8219 15.3087 12.2859C14.5399 12.7828 14.4321 12.8391 13.8555 13.0547C13.1899 13.3031 12.6415 13.4109 11.9993 13.4109C11.343 13.4109 10.8368 13.3172 10.1712 13.0828C9.54305 12.8578 9.51492 12.8438 8.53055 12.2203C8.01492 11.8922 7.63055 11.6813 7.48055 11.6391C7.21805 11.5735 7.21805 11.5735 6.68367 11.6297Z" fill="white"/>
</svg>
