<svg width="22" height="24" viewBox="0 0 22 24" fill="none" xmlns="http://www.w3.org/2000/svg">
<path d="M11.8656 0.0468788C11.8141 0.0703163 9.15625 2.7 5.96406 5.89688L0.15625 11.7094L0.132812 11.9766L0.109375 12.2438L5.91719 18.0563C9.11406 21.2531 11.7812 23.8969 11.8516 23.9344C12.3203 24.1828 12.8734 23.6156 12.6344 23.1422C12.6063 23.0859 10.1031 20.5547 7.06563 17.5172L1.55313 12L7.06563 6.47813C10.1031 3.44532 12.6063 0.914066 12.6344 0.857815C12.6625 0.801565 12.6859 0.675003 12.6859 0.571878C12.6859 0.178127 12.2313 -0.112497 11.8656 0.0468788Z" fill="#5A4F45"/>
<path d="M21.0758 0.0515785C20.9352 0.107828 9.47422 11.5453 9.37578 11.7281C9.29141 11.8875 9.29141 12.1125 9.37578 12.2719C9.41328 12.3422 12.0477 14.9953 15.2258 18.1735C21.5352 24.4781 21.1227 24.0985 21.5117 23.9344C21.807 23.8125 21.9617 23.4188 21.8211 23.1422C21.793 23.086 19.2898 20.5547 16.2523 17.5172L10.7398 12L16.2523 6.47814C19.2898 3.44533 21.793 0.914078 21.8211 0.857828C21.957 0.585953 21.8211 0.215641 21.5305 0.0797024C21.3477 -0.00935936 21.2492 -0.0140476 21.0758 0.0515785Z" fill="#5A4F45"/>
</svg>
