<svg width="24" height="24" viewBox="0 0 24 24" fill="none" xmlns="http://www.w3.org/2000/svg">
<path d="M11.3009 0.0515747C9.99775 0.2672 8.75087 1.19064 8.16024 2.3672C7.77587 3.14064 7.68212 3.77814 7.68212 5.63439V6.84376H5.96181C4.88837 6.84376 4.17118 6.86251 4.05868 6.89532C3.829 6.95626 3.529 7.22814 3.46806 7.42032C3.43993 7.5047 3.24775 10.7109 3.03681 14.5547C2.60556 22.3781 2.61025 21.8859 2.94775 22.575C3.24306 23.1797 3.7915 23.6484 4.48993 23.8969C4.68681 23.9672 5.37118 23.9766 11.8071 23.9906C16.7946 24 18.9977 23.9906 19.2134 23.9531C19.3821 23.925 19.6868 23.8172 19.8977 23.7188C20.6009 23.3813 21.1493 22.6453 21.2806 21.8672C21.3321 21.5766 21.2899 20.6484 20.9524 14.6016C20.7415 10.7859 20.5493 7.5797 20.5212 7.47657C20.4556 7.23751 20.179 6.96095 19.9399 6.89532C19.8181 6.86251 19.1337 6.84376 18.0087 6.84376H16.2602V5.32032C16.2602 3.63751 16.2321 3.38439 15.9696 2.70001C15.6696 1.92657 14.9806 1.10157 14.2352 0.6422C13.4056 0.121887 12.2618 -0.107801 11.3009 0.0515747ZM12.8524 1.86564C13.5837 2.13282 14.1931 2.76564 14.4415 3.51095C14.5352 3.79689 14.5446 3.92814 14.5634 5.3297L14.5774 6.84376H11.9993H9.41649V5.44689C9.41649 4.43439 9.43525 3.97033 9.48212 3.74533C9.679 2.82189 10.3915 2.07189 11.3384 1.80001C11.6665 1.70626 12.5149 1.73907 12.8524 1.86564Z" fill="white"/>
</svg>
