<svg width="24" height="24" viewBox="0 0 24 24" fill="none" xmlns="http://www.w3.org/2000/svg">
<path d="M11.3067 0.0515747C10.0036 0.2672 8.75673 1.19064 8.1661 2.3672C7.78173 3.14064 7.68798 3.77814 7.68798 5.63439V6.84376H5.96767C4.89423 6.84376 4.17704 6.86251 4.06454 6.89532C3.83485 6.95626 3.53485 7.22814 3.47392 7.42032C3.44579 7.5047 3.2536 10.7109 3.04267 14.5547C2.61142 22.3781 2.6161 21.8859 2.9536 22.575C3.24892 23.1797 3.79735 23.6484 4.49579 23.8969C4.69267 23.9672 5.37704 23.9766 11.813 23.9906C16.8005 24 19.0036 23.9906 19.2192 23.9531C19.388 23.925 19.6927 23.8172 19.9036 23.7188C20.6067 23.3813 21.1552 22.6453 21.2864 21.8672C21.338 21.5766 21.2958 20.6484 20.9583 14.6016C20.7474 10.7859 20.5552 7.5797 20.527 7.47657C20.4614 7.23751 20.1849 6.96095 19.9458 6.89532C19.8239 6.86251 19.1395 6.84376 18.0145 6.84376H16.2661V5.32032C16.2661 3.63751 16.238 3.38439 15.9755 2.70001C15.6755 1.92657 14.9864 1.10157 14.2411 0.6422C13.4114 0.121887 12.2677 -0.107801 11.3067 0.0515747ZM12.8583 1.86564C13.5895 2.13282 14.1989 2.76564 14.4474 3.51095C14.5411 3.79689 14.5505 3.92814 14.5692 5.3297L14.5833 6.84376H12.0052H9.42235V5.44689C9.42235 4.43439 9.4411 3.97033 9.48798 3.74533C9.68485 2.82189 10.3974 2.07189 11.3442 1.80001C11.6724 1.70626 12.5208 1.73907 12.8583 1.86564Z" fill="#5A4F45"/>
</svg>
