<svg width="24" height="25" viewBox="0 0 24 25" fill="none" xmlns="http://www.w3.org/2000/svg">
<g clip-path="url(#clip0_453_656548)">
<path d="M9.0515 0.551561C8.69057 0.621874 8.19838 0.889061 7.9265 1.16094C7.47182 1.61562 7.27025 2.19687 7.26556 3.04062V3.40625H5.84994C4.2515 3.40625 3.89994 3.44375 3.47806 3.64062C3.09838 3.81875 2.64369 4.26875 2.47025 4.63906C2.0765 5.47344 2.24525 6.43906 2.89213 7.08125C3.11713 7.30625 3.64681 7.625 3.79213 7.625C3.82963 7.625 3.84369 9.60312 3.85306 14.8531L3.86713 22.0859L3.99369 22.4609C4.17181 22.9812 4.42494 23.3797 4.78119 23.7219C5.1515 24.0687 5.54056 24.2844 6.02806 24.4062C6.37963 24.4953 6.56713 24.5 11.9999 24.5C17.4328 24.5 17.6203 24.4953 17.9718 24.4062C19.1109 24.1156 19.9312 23.1687 20.1093 21.9359C20.1374 21.7391 20.1562 18.9406 20.1562 14.6234V7.63437L20.3343 7.57344C21.0046 7.35781 21.5859 6.64062 21.7078 5.89062C21.8343 5.09844 21.4406 4.2125 20.7609 3.77656C20.2499 3.45312 20.1703 3.43906 18.3703 3.41562L16.7484 3.39687L16.7203 2.84844C16.6874 2.24375 16.589 1.89219 16.3593 1.52656C16.0453 1.03906 15.4781 0.654686 14.9109 0.546875C14.6015 0.490623 9.3515 0.490623 9.0515 0.551561ZM14.9765 1.72812C15.3984 1.95781 15.5671 2.28125 15.5999 2.92344L15.6234 3.40625H11.9999H8.38119L8.39525 2.9C8.414 2.45469 8.42806 2.375 8.54525 2.17812C8.61556 2.05625 8.73744 1.91094 8.81713 1.85469C9.14056 1.625 9.1265 1.625 12.0703 1.63906C14.5453 1.64844 14.8499 1.65781 14.9765 1.72812ZM20.039 4.65781C20.2781 4.78437 20.414 4.92969 20.5124 5.16406C20.6906 5.59531 20.5406 6.11562 20.1609 6.38281L19.9593 6.52344L12.1031 6.5375C6.614 6.54688 4.19056 6.5375 4.06869 6.5C3.59994 6.36406 3.29994 5.825 3.42181 5.33281C3.51088 4.9625 3.80619 4.67188 4.19525 4.57344C4.27494 4.55469 7.82806 4.54531 12.0937 4.54531L19.8515 4.55469L20.039 4.65781ZM19.0218 14.5859C19.0312 19.2875 19.0171 21.5797 18.9843 21.8047C18.8859 22.4516 18.5484 22.9297 18.0093 23.1969L17.6953 23.3516L12.1218 23.3656C6.07494 23.3797 6.23431 23.3844 5.8265 23.1266C5.44213 22.8828 5.12338 22.4094 5.02025 21.9312C4.98275 21.7531 4.96869 19.6859 4.96869 14.675V7.67188L11.9906 7.68125L19.0078 7.69531L19.0218 14.5859Z" fill="white"/>
<path d="M8.30626 9.35469C8.23126 9.43437 8.15626 9.56094 8.13751 9.64531C8.12344 9.725 8.10938 12.1859 8.10938 15.1109C8.10938 20.7781 8.10469 20.6047 8.3297 20.8109C8.47501 20.9375 8.72345 20.9609 8.92032 20.8672C9.25313 20.7078 9.23438 21.0875 9.23438 15.0547C9.23438 9.17187 9.24845 9.47187 8.98126 9.29375C8.91563 9.25156 8.77032 9.21875 8.65313 9.21875C8.48438 9.21875 8.41876 9.24687 8.30626 9.35469Z" fill="white"/>
<path d="M11.6627 9.32656C11.5971 9.38281 11.5174 9.47656 11.4893 9.53281C11.4518 9.60312 11.4377 11.225 11.4377 15.0547C11.4377 21.0875 11.4189 20.7078 11.7518 20.8672C11.9486 20.9609 12.1971 20.9375 12.3424 20.8109C12.5674 20.6047 12.5627 20.7781 12.5627 15.1109C12.5627 12.1859 12.5486 9.725 12.5346 9.64531C12.5158 9.56094 12.4408 9.43437 12.3658 9.35469C12.1877 9.17656 11.8549 9.1625 11.6627 9.32656Z" fill="white"/>
<path d="M14.925 9.37812L14.7656 9.5375V15.0266C14.7656 19.7469 14.775 20.5391 14.8359 20.6516C14.9062 20.7969 15.1594 20.9375 15.3422 20.9375C15.5156 20.9375 15.7641 20.7453 15.8297 20.5625C15.9047 20.3469 15.9141 9.89375 15.8437 9.63125C15.7734 9.37812 15.5578 9.21875 15.2953 9.21875C15.1172 9.21875 15.0609 9.24219 14.925 9.37812Z" fill="white"/>
</g>
<defs>
<clipPath id="clip0_453_656548">
<rect width="24" height="24" fill="white" transform="translate(0 0.5)"/>
</clipPath>
</defs>
</svg>
