<svg width="41" height="41" viewBox="0 0 41 41" fill="none" xmlns="http://www.w3.org/2000/svg">
<path d="M5.96878 8.35944C4.74221 8.68756 3.78909 9.73444 3.55471 11.0001C3.43753 11.6251 3.43753 28.4219 3.5469 29.0235C3.81253 30.4297 4.96096 31.5391 6.3594 31.7579C6.68753 31.8047 11.8516 31.8282 20.8516 31.8126L34.836 31.7891L35.2735 31.6094C36.2266 31.2266 36.9219 30.5313 37.3203 29.5626L37.4922 29.1329L37.5157 20.3438C37.5313 14.2891 37.5157 11.3985 37.4532 11.0626C37.336 10.3594 37.0157 9.75006 36.5157 9.24225C36.0235 8.75006 35.6406 8.5235 34.9766 8.35162C34.3047 8.17975 6.62503 8.18756 5.96878 8.35944ZM34.711 9.60162C34.7656 9.65631 32.4766 11.7188 27.711 15.9297C23.8125 19.3672 20.586 22.1876 20.5313 22.2032C20.4375 22.2266 6.34378 9.84381 6.27346 9.67975C6.25784 9.64069 6.35159 9.57819 6.47659 9.55475C6.88284 9.46881 34.625 9.51569 34.711 9.60162ZM9.93753 14.6719C12.2656 16.7344 14.1641 18.461 14.1563 18.5079C14.1406 18.5547 12.0625 20.961 9.52346 23.8438C6.4844 27.3126 4.89846 29.0547 4.8594 28.9922C4.82815 28.9454 4.7969 24.8907 4.7969 19.9922C4.7969 11.2813 4.80471 11.0782 4.95315 10.7422L5.1094 10.4063L5.40628 10.6641C5.56253 10.8126 7.60159 12.6172 9.93753 14.6719ZM36.125 10.9688C36.2266 11.3282 36.2344 28.9141 36.1328 28.9688C36.0547 29.0235 26.8672 18.6016 26.8672 18.4688C26.8672 18.4219 28.8906 16.6016 31.3594 14.4141C36.2422 10.0938 35.9453 10.3126 36.125 10.9688ZM17.9453 21.7422C19.1406 22.7969 20.2031 23.6954 20.3125 23.7344C20.4297 23.7813 20.5703 23.7813 20.6953 23.7344C20.8047 23.6954 21.9844 22.6954 23.3203 21.5157C24.6641 20.336 25.7891 19.3672 25.8203 19.3672C25.8594 19.3672 28.0156 21.7891 30.6094 24.7501C35.7578 30.6172 35.4453 30.1954 34.8047 30.4063C34.4297 30.5391 6.57815 30.5391 6.19534 30.4141C5.59378 30.211 5.35159 30.5391 10.461 24.7266L15.1953 19.3204L15.4844 19.5704C15.6406 19.711 16.75 20.6876 17.9453 21.7422Z" fill="#5A4F45"/>
</svg>
