<svg width="40" height="41" viewBox="0 0 40 41" fill="none" xmlns="http://www.w3.org/2000/svg">
<g clip-path="url(#clip0_75_24509)">
<path opacity="0.991" fill-rule="evenodd" clip-rule="evenodd" d="M18.1641 0.460938C19.362 0.460938 20.5599 0.460938 21.7578 0.460938C28.7612 1.31155 34.0347 4.7751 37.5781 10.8516C38.8824 13.3102 39.6766 15.9144 39.9609 18.6641C39.9609 19.862 39.9609 21.0599 39.9609 22.2578C39.1948 28.8405 36.0438 33.9316 30.5078 37.5312C28.9182 38.4758 27.2385 39.218 25.4688 39.7578C25.4297 34.7839 25.4166 29.81 25.4297 24.8359C26.888 24.8359 28.3463 24.8359 29.8047 24.8359C29.9653 23.1992 30.1737 21.5716 30.4297 19.9531C28.7632 19.9141 27.0966 19.901 25.4297 19.9141C25.4166 18.6377 25.4297 17.3617 25.4688 16.0859C25.5694 14.9177 26.2074 14.3057 27.3828 14.25C28.4502 14.2109 29.5179 14.1979 30.5859 14.2109C30.5859 12.7526 30.5859 11.2943 30.5859 9.83594C28.8955 9.65273 27.2027 9.61367 25.5078 9.71875C22.3966 10.325 20.6909 12.213 20.3906 15.3828C20.3516 16.893 20.3385 18.4034 20.3516 19.9141C18.9193 19.9141 17.487 19.9141 16.0547 19.9141C16.0547 21.5547 16.0547 23.1953 16.0547 24.8359C17.487 24.8359 18.9193 24.8359 20.3516 24.8359C20.3516 30.0443 20.3516 35.2526 20.3516 40.4609C19.6224 40.4609 18.8932 40.4609 18.1641 40.4609C11.1606 39.6103 5.8872 36.1468 2.34375 30.0703C1.03948 27.6116 0.245203 25.0075 -0.0390625 22.2578C-0.0390625 21.0599 -0.0390625 19.862 -0.0390625 18.6641C0.811523 11.6607 4.27506 6.38729 10.3516 2.84375C12.8102 1.53948 15.4144 0.745203 18.1641 0.460938Z" fill="#E5B664"/>
</g>
<defs>
<clipPath id="clip0_75_24509">
<rect width="40" height="40" fill="white" transform="translate(0 0.5)"/>
</clipPath>
</defs>
</svg>
