<svg width="23" height="22" viewBox="0 0 23 22" fill="none" xmlns="http://www.w3.org/2000/svg">
<path d="M5.77627 0.945314C4.84814 1.09531 3.7747 1.53594 3.01533 2.07969C-0.097171 4.325 -0.664359 8.75 1.78252 11.6844C2.13408 12.1109 11.1997 20.9984 11.3591 21.0734C11.4763 21.1344 11.5138 21.1344 11.631 21.0734C11.7528 21.0125 20.2231 12.7391 20.9872 11.9328C21.8028 11.0703 22.3888 9.90313 22.6325 8.65625C22.7591 7.99531 22.7497 6.82813 22.6091 6.17188C22.3325 4.87344 21.7888 3.83281 20.9028 2.90469C18.8731 0.781252 15.8731 0.275002 13.4872 1.65781C12.9341 1.97656 12.4794 2.33281 11.9591 2.85781L11.495 3.33125L11.0356 2.8625C10.5106 2.32813 10.056 1.97188 9.46064 1.63438C8.35439 0.996876 7.02314 0.748438 5.77627 0.945314Z" fill="white"/>
</svg>
