<svg width="24" height="24" viewBox="0 0 24 24" fill="none" xmlns="http://www.w3.org/2000/svg">
<path d="M6.28213 1.94531C5.354 2.09531 4.28056 2.53594 3.52119 3.07969C0.408688 5.325 -0.158499 9.75 2.28838 12.6844C2.63994 13.1109 11.7056 21.9984 11.8649 22.0734C11.9821 22.1344 12.0196 22.1344 12.1368 22.0734C12.2587 22.0125 20.729 13.7391 21.4931 12.9328C22.3087 12.0703 22.8946 10.9031 23.1384 9.65625C23.2649 8.99531 23.2556 7.82813 23.1149 7.17188C22.8384 5.87344 22.2946 4.83281 21.4087 3.90469C19.379 1.78125 16.379 1.275 13.9931 2.65781C13.4399 2.97656 12.9853 3.33281 12.4649 3.85781L12.0009 4.33125L11.5415 3.8625C11.0165 3.32813 10.5618 2.97188 9.9665 2.63438C8.86025 1.99688 7.529 1.74844 6.28213 1.94531Z" fill="#DBA957"/>
</svg>
