<svg width="22" height="16" viewBox="0 0 22 16" fill="none" xmlns="http://www.w3.org/2000/svg">
<path d="M14.0797 0.575C12.8375 0.8 11.7453 1.70469 11.2625 2.90469C11.1969 3.07344 11.1266 3.27969 11.1125 3.35938L11.0844 3.5H6.10625C1.35781 3.5 1.12344 3.50469 0.940625 3.58906C0.654688 3.72031 0.523438 3.93125 0.523438 4.25937C0.523438 4.55469 0.6125 4.71406 0.875 4.89219L1.02969 5H6.05H11.0703L11.1969 5.4125C11.4922 6.35469 12.2094 7.17969 13.1234 7.625C13.7188 7.91094 14.0188 7.97656 14.75 7.97656C15.4813 7.97187 15.7766 7.91094 16.3766 7.62031C17.2906 7.18437 17.9891 6.38281 18.2984 5.42188L18.4297 5H19.7C20.9375 5 20.975 4.99531 21.125 4.89219C21.3594 4.7375 21.4625 4.56406 21.4859 4.31094C21.5094 4.00625 21.3641 3.74844 21.0781 3.60312C20.8766 3.50469 20.825 3.5 19.6438 3.5H18.4203L18.3875 3.35938C18.3359 3.09219 18.1109 2.58594 17.9047 2.2625C17.3281 1.3625 16.4141 0.753125 15.3828 0.570312C14.8906 0.485937 14.5672 0.485937 14.0797 0.575ZM15.2234 2.06562C16.1375 2.2625 16.8313 3.00781 16.9672 3.94062C17.1969 5.53437 15.7297 6.8375 14.1641 6.42969C13.3344 6.20937 12.6875 5.50156 12.5375 4.63437C12.3406 3.47656 13.1094 2.31875 14.2484 2.07031C14.6281 1.98594 14.8484 1.98594 15.2234 2.06562Z" fill="#5A4F45"/>
<path d="M6.57969 8.075C5.3375 8.3 4.24531 9.20469 3.7625 10.4047C3.69688 10.5734 3.62656 10.7797 3.6125 10.8594L3.58438 11H2.35625C1.26406 11 1.11406 11.0094 0.940625 11.0891C0.654688 11.2203 0.523438 11.4312 0.523438 11.7594C0.523438 12.0547 0.6125 12.2141 0.875 12.3922C1.025 12.4953 1.0625 12.5 2.3 12.5H3.57031L3.69688 12.9125C3.99219 13.8547 4.70938 14.6797 5.62344 15.125C6.21875 15.4109 6.51875 15.4766 7.25 15.4766C7.98125 15.4719 8.27656 15.4109 8.87656 15.1203C9.79063 14.6844 10.4891 13.8828 10.7984 12.9219L10.9297 12.5H15.95H20.9703L21.125 12.3922C21.3594 12.2375 21.4625 12.0641 21.4859 11.8109C21.5094 11.5062 21.3641 11.2484 21.0781 11.1031L20.8719 11H15.8938H10.9203L10.8875 10.8594C10.8359 10.5922 10.6109 10.0859 10.4047 9.7625C9.82813 8.8625 8.91406 8.25312 7.88281 8.07031C7.39063 7.98594 7.06719 7.98594 6.57969 8.075ZM7.72344 9.56562C8.6375 9.7625 9.33125 10.5078 9.46719 11.4406C9.69688 13.0344 8.22969 14.3375 6.66406 13.9297C5.83438 13.7094 5.1875 13.0016 5.0375 12.1344C4.84063 10.9766 5.60938 9.81875 6.74844 9.57031C7.12813 9.48594 7.34844 9.48594 7.72344 9.56562Z" fill="#5A4F45"/>
</svg>
