<svg width="40" height="41" viewBox="0 0 40 41" fill="none" xmlns="http://www.w3.org/2000/svg">
<g clip-path="url(#clip0_75_24513)">
<path d="M18.5547 1.01568C18.4297 1.0313 17.9844 1.08599 17.5781 1.13287C14.1797 1.51568 10.7891 2.93755 7.89063 5.17974C7.03125 5.8438 5.33594 7.53912 4.67188 8.39849C2.50781 11.1876 1.19531 14.2735 0.648438 17.8204C0.46875 18.9922 0.46875 22.0079 0.648438 23.1797C1.52344 28.8594 4.5 33.6016 9.14063 36.711C11.7188 38.4376 14.3672 39.4297 17.6172 39.8907C18.6719 40.0391 21.5469 40.0157 22.6953 39.8516C25.6094 39.4219 28.4063 38.3516 30.7813 36.7657C35.6016 33.5391 38.5625 28.7579 39.3906 22.8829C39.5234 21.9532 39.5156 19.0313 39.3828 18.0782C38.6953 13.1172 36.3047 8.71099 32.6172 5.60162C29.8281 3.24224 26.3516 1.67974 22.7344 1.16412C21.8906 1.03912 19.0859 0.937553 18.5547 1.01568ZM25.75 8.63287C26.8438 8.75005 27.5938 8.96099 28.4766 9.39849C30.0547 10.1797 31.0234 11.3047 31.6094 13.0235C32.0156 14.2188 32.0313 14.4532 32.0313 20.5001C32.0313 25.0782 32.0078 26.2266 31.9141 26.7579C31.3438 30.0235 29.1875 31.9844 25.7422 32.3751C24.8047 32.4766 15.1797 32.4766 14.2578 32.3751C11.7344 32.086 9.83594 30.9219 8.85938 29.0704C8.5 28.3829 8.22656 27.5704 8.08594 26.7579C7.91406 25.7969 7.91406 15.2032 8.08594 14.2422C8.30469 12.9688 8.82031 11.7891 9.52344 10.9297C10.5156 9.7188 12.2656 8.85162 14.1406 8.63287C15.0156 8.5313 24.8516 8.5313 25.75 8.63287Z" fill="#E5B664"/>
<path d="M16.9922 10.8203C13.8047 10.875 13.6016 10.8984 12.5312 11.4062C11.5312 11.875 10.6953 12.9766 10.3438 14.2891C10.2031 14.7969 10.1953 15.2031 10.1953 20.5C10.1953 25.7969 10.2031 26.2031 10.3438 26.7109C10.6953 28.0234 11.5312 29.125 12.5312 29.5938C13.6016 30.1016 13.7969 30.125 17.0547 30.1797C18.6719 30.2031 21.3281 30.2031 22.9531 30.1797C26.2031 30.125 26.3984 30.1016 27.4688 29.5938C28.4688 29.125 29.3047 28.0234 29.6562 26.7109C29.7969 26.2031 29.8047 25.7969 29.8047 20.5C29.8047 15.2031 29.7969 14.7969 29.6562 14.2891C29.3047 12.9766 28.4688 11.875 27.4688 11.4062C26.4844 10.9375 26.1016 10.875 24.0234 10.8438C22.9922 10.8281 21.6406 10.8047 21.0156 10.7891C20.3906 10.7812 18.5859 10.7969 16.9922 10.8203ZM26.9062 13.0312C27.0469 13.0938 27.2656 13.2734 27.3906 13.4375C27.5781 13.6797 27.6172 13.8047 27.6172 14.1797C27.6172 14.5156 27.5781 14.6875 27.4531 14.8516C26.8672 15.6406 25.7578 15.625 25.2891 14.8125C25.0938 14.4766 25.0938 13.875 25.2812 13.5469C25.5938 13.0156 26.3203 12.7891 26.9062 13.0312ZM21.4609 14.3281C24.3516 15.0156 26.3281 17.5312 26.3281 20.5C26.3281 24.0469 23.5469 26.8281 20 26.8281C16.4609 26.8281 13.6719 24.0391 13.6719 20.5C13.6719 17.5469 15.6328 15.0391 18.5 14.3281C19.3359 14.125 20.6172 14.125 21.4609 14.3281Z" fill="#E5B664"/>
<path d="M18.75 16.6172C17.3984 17.0781 16.4609 18.0547 16.0625 19.3984C15.9922 19.6484 15.9375 20.1094 15.9375 20.5C15.9375 21.6406 16.3438 22.625 17.1172 23.3906C17.9062 24.1719 18.8672 24.5625 20 24.5625C21.1406 24.5625 22.125 24.1562 22.8906 23.3828C23.6719 22.5938 24.0625 21.6328 24.0625 20.5C24.0625 18.6328 22.8984 17.0938 21.1016 16.5625C20.4609 16.375 19.3828 16.3984 18.75 16.6172Z" fill="#E5B664"/>
</g>
<defs>
<clipPath id="clip0_75_24513">
<rect width="40" height="40" fill="white" transform="translate(0 0.5)"/>
</clipPath>
</defs>
</svg>
