<svg width="40" height="41" viewBox="0 0 40 41" fill="none" xmlns="http://www.w3.org/2000/svg">
<g clip-path="url(#clip0_75_24519)">
<path opacity="0.99" fill-rule="evenodd" clip-rule="evenodd" d="M18.2422 0.460938C19.4141 0.460938 20.5859 0.460938 21.7578 0.460938C28.7612 1.31155 34.0347 4.7751 37.5781 10.8516C38.8824 13.3102 39.6766 15.9144 39.9609 18.6641C39.9609 19.8359 39.9609 21.0078 39.9609 22.1797C38.9856 30.0162 34.9231 35.6021 27.7734 38.9375C25.8059 39.7419 23.7747 40.2497 21.6797 40.4609C20.5078 40.4609 19.3359 40.4609 18.1641 40.4609C10.1902 39.4238 4.57819 35.2311 1.32812 27.8828C0.627414 26.0568 0.171685 24.1818 -0.0390625 22.2578C-0.0390625 21.0599 -0.0390625 19.862 -0.0390625 18.6641C0.727108 12.0814 3.87815 6.99027 9.41406 3.39062C12.1423 1.74769 15.085 0.771125 18.2422 0.460938ZM11.4453 9.99219C12.9023 9.87461 13.8788 10.4996 14.375 11.8672C14.5967 13.2339 14.0889 14.2105 12.8516 14.7969C11.3752 15.198 10.2945 14.7162 9.60938 13.3516C9.2393 11.6959 9.85125 10.5762 11.4453 9.99219ZM24.4922 16.6328C28.2431 16.3138 30.2092 18.0326 30.3906 21.7891C30.4297 24.8359 30.4427 27.8827 30.4297 30.9297C28.9974 30.9297 27.5651 30.9297 26.1328 30.9297C26.1689 27.9843 26.1298 25.0416 26.0156 22.1016C25.7436 20.9439 25.0145 20.371 23.8281 20.3828C22.437 20.3751 21.6036 21.0522 21.3281 22.4141C21.214 25.2498 21.1749 28.0884 21.2109 30.9297C19.7787 30.9297 18.3463 30.9297 16.9141 30.9297C16.9141 26.2682 16.9141 21.6068 16.9141 16.9453C18.2943 16.9453 19.6745 16.9453 21.0547 16.9453C21.0288 17.5984 21.0548 18.2495 21.1328 18.8984C21.9275 17.6552 23.0473 16.9 24.4922 16.6328ZM9.80469 16.9453C11.237 16.9453 12.6693 16.9453 14.1016 16.9453C14.1016 21.6068 14.1016 26.2682 14.1016 30.9297C12.6693 30.9297 11.237 30.9297 9.80469 30.9297C9.80469 26.2682 9.80469 21.6068 9.80469 16.9453Z" fill="#5A4F45"/>
</g>
<defs>
<clipPath id="clip0_75_24519">
<rect width="40" height="40" fill="white" transform="translate(0 0.5)"/>
</clipPath>
</defs>
</svg>
