<svg width="41" height="41" viewBox="0 0 41 41" fill="none" xmlns="http://www.w3.org/2000/svg">
<path d="M19.2893 1.17184C13.0706 1.84372 8.31276 6.86716 8.02369 13.0781C7.95338 14.6562 8.22682 16.2422 8.83619 17.7968C9.35963 19.1328 9.80494 19.9218 11.219 22.0547C11.6878 22.7578 12.0628 23.3359 12.0471 23.3515C12.0315 23.3593 11.5237 23.5156 10.9143 23.6875C5.03932 25.3906 1.75807 28.6484 2.48463 32.0625C3.20338 35.4297 7.78932 38.2578 14.344 39.3672C16.5081 39.7343 17.7112 39.8203 20.344 39.8281C22.969 39.8359 24.1643 39.7578 26.1878 39.4375C32.4143 38.4687 36.9456 36.0078 38.2503 32.9062C38.8674 31.4375 38.6799 29.7968 37.719 28.3437C37.3362 27.7656 36.3987 26.8125 35.7346 26.3203C34.2034 25.2031 31.9924 24.1875 29.7503 23.5859C29.3284 23.4687 28.969 23.3672 28.9534 23.3515C28.9456 23.3437 29.4456 22.5703 30.0706 21.6328C31.6878 19.2265 32.3518 17.7968 32.7737 15.8125C33.0315 14.6328 33.0315 12.5547 32.7815 11.3047C31.7737 6.24216 27.9143 2.36716 22.8831 1.35934C22.1174 1.20309 20.0081 1.09372 19.2893 1.17184ZM21.8284 2.45309C26.6409 3.04684 30.5081 6.60934 31.5159 11.3828C32.1409 14.3125 31.469 17.289 29.5159 20.2265C28.5628 21.6718 20.5549 33.0781 20.5003 33.0781C20.4299 33.0781 12.6956 22.039 11.7268 20.5468C9.39088 16.9531 8.77369 14.1562 9.60963 10.8593C10.469 7.41403 12.9456 4.58591 16.2971 3.20309C17.9846 2.50778 20.0159 2.23434 21.8284 2.45309ZM16.5081 29.6406C20.2581 35 20.2268 34.9609 20.6956 34.8437C20.8362 34.8047 21.7581 33.5468 24.5003 29.6328L28.1096 24.4765L28.3831 24.5234C28.8753 24.6172 30.469 25.0937 31.2581 25.3906C34.0003 26.4062 36.1956 27.9843 36.9378 29.4922C37.7346 31.1093 37.4143 32.5625 35.9299 34.0625C31.8128 38.2031 20.8049 39.8515 12.1956 37.6093C8.99244 36.7734 6.60963 35.5859 5.06276 34.0547C4.51588 33.5078 4.28932 33.2187 4.06276 32.7578C3.26588 31.1406 3.58619 29.6718 5.06276 28.1875C6.07838 27.1718 7.22682 26.4375 8.93776 25.7109C10.0862 25.2265 12.3362 24.5078 12.7737 24.4922C12.8518 24.4843 14.2034 26.3515 16.5081 29.6406Z" fill="#5A4F45"/>
<path d="M19.4459 7.46094C17.149 7.91406 15.2975 9.49219 14.61 11.5859C13.8365 13.9375 14.3912 16.3281 16.0943 18.0312C17.3131 19.25 18.735 19.8359 20.5006 19.8359C22.2662 19.8359 23.6881 19.25 24.9068 18.0312C26.1256 16.8125 26.7115 15.3906 26.7115 13.625C26.7115 12.2656 26.4303 11.2969 25.7428 10.25C24.86 8.89844 23.6021 8 21.985 7.55469C21.4537 7.41406 19.9693 7.35938 19.4459 7.46094ZM21.5553 8.74219C23.2428 9.09375 24.7506 10.4844 25.2896 12.1797C25.5318 12.9531 25.5318 14.2969 25.2896 15.0703C24.7975 16.625 23.5006 17.9219 21.9459 18.4141C21.1725 18.6562 19.8287 18.6562 19.0553 18.4141C17.7818 18.0078 16.6412 17.0469 16.0631 15.8906C15.3209 14.4141 15.3209 12.8438 16.0475 11.3906C17.0787 9.34375 19.3053 8.27344 21.5553 8.74219Z" fill="#5A4F45"/>
</svg>
