<svg width="24" height="24" viewBox="0 0 24 24" fill="none" xmlns="http://www.w3.org/2000/svg">
<path d="M11.1319 5.27812C8.31007 5.57343 5.9007 6.75 3.77257 8.88281C2.75539 9.9 2.08507 10.7906 1.91164 11.3578C1.78976 11.775 1.80851 12.3984 1.9632 12.8062C2.23976 13.5234 3.66945 15.1547 4.87414 16.1203C6.56164 17.4797 8.37101 18.2906 10.4757 18.6375C11.1976 18.7594 12.8007 18.7594 13.5226 18.6375C15.6319 18.2906 17.3944 17.4984 19.1241 16.125C20.3194 15.1734 21.8101 13.4578 22.0585 12.7406C22.1898 12.3656 22.1804 11.5547 22.0351 11.1937C21.7491 10.4672 20.296 8.80781 19.1241 7.875C17.4366 6.52968 15.6648 5.72343 13.6632 5.38593C13.1194 5.29218 11.6007 5.23125 11.1319 5.27812ZM13.4523 6.86718C16.1194 7.3125 18.4444 8.79843 20.3101 11.2453L20.6476 11.6859V12V12.3141L20.3101 12.7547C18.4491 15.1969 16.1335 16.6734 13.4288 17.1422C12.7726 17.2547 11.221 17.2547 10.5694 17.1422C7.85539 16.6687 5.55851 15.2062 3.6882 12.7547L3.3507 12.3141V12V11.6859L3.6882 11.2453C5.58664 8.75625 8.08507 7.19062 10.7101 6.84843C10.9163 6.82031 11.1507 6.7875 11.2257 6.77812C11.5257 6.73593 13.0304 6.79687 13.4523 6.86718Z" fill="#4B3A32"/>
<path d="M11.225 8.31562C9.74841 8.60625 8.68903 9.65156 8.38435 11.1281C8.04216 12.7781 8.7031 14.4422 10.0062 15.2297C11.3656 16.05 13.4468 15.8719 14.5672 14.8359C16.414 13.125 16.0203 9.84375 13.8265 8.67656C13.3578 8.42812 12.7953 8.29219 12.139 8.26875C11.7593 8.25938 11.4359 8.27344 11.225 8.31562ZM12.4953 9.80156C13.3297 9.95156 13.9718 10.5844 14.1781 11.4422C14.4218 12.4922 13.9437 13.5937 13.0484 14.0203C12.4297 14.3156 11.5672 14.3156 10.9484 14.0203C10.0531 13.5937 9.57497 12.4922 9.81872 11.4422C10.1047 10.2375 11.1968 9.5625 12.4953 9.80156Z" fill="#4B3A32"/>
</svg>
