<svg width="41" height="41" viewBox="0 0 41 41" fill="none" xmlns="http://www.w3.org/2000/svg">
<path d="M5.70039 5.38009C4.10039 6.82009 2.90039 8.58009 2.90039 9.62009C2.98039 18.1801 22.8204 38.0201 31.3804 38.1001C33.3004 38.1001 38.1004 33.2201 38.1004 31.3001C38.1004 30.6601 36.1004 28.8201 33.7004 27.1401C29.3004 24.2601 29.2204 24.2601 26.5804 25.5401L23.9404 26.7401L19.0604 21.8601L14.2604 16.9001L15.5404 14.3401C16.7404 11.7801 16.7404 11.7001 13.8604 7.30009C12.1804 4.90009 10.3404 2.90009 9.70039 2.90009C9.06039 2.90009 7.30039 4.02009 5.70039 5.38009ZM12.5804 8.18009C14.9004 11.5401 14.9804 12.0201 14.0204 13.9401C13.4604 15.1401 12.8204 16.3401 12.6604 16.6601C12.3404 17.3801 21.0604 26.7401 23.0604 27.7801C23.9404 28.2601 25.1404 28.1001 26.7404 27.1401C28.9804 25.8601 29.1404 25.8601 32.7404 28.4201C34.8204 29.7801 36.5004 31.2201 36.5004 31.6201C36.5004 31.9401 35.4604 33.2201 34.1804 34.4201C31.4604 36.9801 29.4604 36.9001 24.5004 33.8601C20.4204 31.3801 10.4204 21.6201 7.78039 17.3801C4.10039 11.7001 3.86039 9.62009 6.58039 6.82009C7.78039 5.54009 9.06039 4.50009 9.38039 4.50009C9.78039 4.50009 11.1404 6.18009 12.5804 8.18009Z" fill="#E3B463"/>
</svg>
