<svg width="58" height="60" viewBox="0 0 58 60" fill="none" xmlns="http://www.w3.org/2000/svg">
<path d="M28.5803 60.0001C24.1003 59.7601 19.8203 58.3601 15.7403 55.8001C13.7403 54.5601 11.8803 53.0601 10.1603 51.3001C8.36027 49.4601 6.82027 47.4401 5.54027 45.2401C5.38027 45.0401 5.34027 44.8301 5.42027 44.6101C5.50027 44.3901 5.64027 44.2101 5.84027 44.0701C6.04027 43.9301 6.25027 43.8901 6.47027 43.9501C6.69027 44.0101 6.88027 44.1401 7.04027 44.3401C9.48027 48.5001 12.7003 51.8401 16.7003 54.3601C19.6203 56.1601 22.6403 57.3401 25.7603 57.9001C24.1603 56.6601 22.6803 55.2001 21.3203 53.5201L19.8203 53.1601C19.6203 53.0801 19.4603 52.9401 19.3403 52.7401C19.2203 52.5401 19.1803 52.3201 19.2203 52.0801C19.2603 51.8401 19.4403 51.6401 19.7603 51.4801C18.9203 50.2801 18.0803 48.9201 17.2403 47.4001C17.2003 47.2401 17.0803 46.9801 16.8803 46.6201L16.7603 46.3801L13.5203 45.4801C13.2803 45.4401 13.1003 45.3101 12.9803 45.0901C12.8603 44.8701 12.8303 44.6401 12.8903 44.4001C12.9503 44.1601 13.0903 43.9801 13.3103 43.8601C13.5303 43.7401 13.7603 43.7201 14.0003 43.8001L15.8603 44.2801C15.3003 42.9601 14.8003 41.4601 14.3603 39.7801L9.44027 38.4601C9.24027 38.3801 9.08027 38.2401 8.96027 38.0401C8.84027 37.8401 8.80027 37.6201 8.84027 37.3801C8.88027 37.1401 9.01027 36.9601 9.23027 36.8401C9.45027 36.7201 9.68027 36.7001 9.92027 36.7801L13.9403 37.8601C13.6603 36.6201 13.4603 35.2201 13.3403 33.6601L7.64027 32.0401C7.40027 32.0001 7.22027 31.8701 7.10027 31.6501C6.98027 31.4301 6.95027 31.2001 7.01027 30.9601C7.07027 30.7201 7.21027 30.5401 7.43027 30.4201C7.65027 30.3001 7.88027 30.2801 8.12027 30.3601L11.9603 31.3801L7.88027 24.2401C7.76027 24.0401 7.73027 23.8201 7.79027 23.5801C7.85027 23.3401 7.98027 23.1601 8.18027 23.0401C8.38027 22.9201 8.60027 22.8901 8.84027 22.9501C9.08027 23.0101 9.26027 23.1401 9.38027 23.3401L13.1603 29.8801C13.1603 26.5601 13.5603 23.3601 14.3603 20.2801C12.9203 19.5601 11.4203 18.9801 9.86027 18.5401C8.30027 18.1001 6.74027 17.8601 5.18027 17.8201C3.54027 21.0201 2.68027 24.6401 2.60027 28.6801C2.60027 32.9201 3.48027 37.0001 5.24027 40.9201C5.32027 41.1201 5.32027 41.3401 5.24027 41.5801C5.16027 41.8201 5.01027 41.9901 4.79027 42.0901C4.57027 42.1901 4.34027 42.1901 4.10027 42.0901C3.86027 41.9901 3.70027 41.8401 3.62027 41.6401C1.70027 37.4001 0.780269 33.0601 0.860269 28.6201C0.940269 24.1801 1.94027 20.1401 3.86027 16.5001C4.06027 16.1801 4.34027 16.0201 4.70027 16.0201C6.54027 16.0601 8.40027 16.3401 10.2803 16.8601C11.8803 17.3001 13.4003 17.8601 14.8403 18.5401C15.5203 16.3401 16.3203 14.3601 17.2403 12.6001C18.6403 9.96006 20.3003 7.58006 22.2203 5.46006C24.1403 3.34006 26.2603 1.56006 28.5803 0.120064C28.9003 -0.079937 29.2003 -0.079937 29.4803 0.120064C31.0003 1.08006 32.3403 2.08006 33.5003 3.12006C34.9403 4.40006 36.1203 5.64006 37.0403 6.84006C37.2003 7.00006 37.2703 7.20006 37.2503 7.44006C37.2303 7.68006 37.1203 7.88006 36.9203 8.04006C36.7203 8.20006 36.5003 8.27006 36.2603 8.25006C36.0203 8.23006 35.8203 8.12006 35.6603 7.92006C34.7403 6.80006 33.6203 5.64006 32.3003 4.44006C31.3803 3.56006 30.2803 2.72006 29.0003 1.92006C24.7603 4.64006 21.3603 8.48006 18.8003 13.4401C17.5603 15.8801 16.6003 18.4801 15.9203 21.2401C15.2403 24.1201 14.9003 27.0401 14.9003 30.0001C14.9003 36.0001 16.2003 41.5201 18.8003 46.5601C21.1603 51.1201 24.2803 54.7601 28.1603 57.4801V52.2601L23.2403 47.3401C23.0803 47.1401 23.0003 46.9201 23.0003 46.6801C23.0003 46.4401 23.0803 46.2301 23.2403 46.0501C23.4003 45.8701 23.6003 45.7801 23.8403 45.7801C24.0803 45.7801 24.2803 45.8801 24.4403 46.0801L28.1603 49.7401V42.5401L21.2603 35.6401C21.1003 35.4401 21.0203 35.2201 21.0203 34.9801C21.0203 34.7401 21.1103 34.5401 21.2903 34.3801C21.4703 34.2201 21.6803 34.1401 21.9203 34.1401C22.1603 34.1401 22.3603 34.2201 22.5203 34.3801L28.1603 40.0801V32.8201L21.2603 25.9201C21.1003 25.7601 21.0203 25.5601 21.0203 25.3201C21.0203 25.0801 21.1103 24.8701 21.2903 24.6901C21.4703 24.5101 21.6803 24.4201 21.9203 24.4201C22.1603 24.4201 22.3603 24.5201 22.5203 24.7201L28.1603 30.3601V23.1001L23.2403 18.1801C23.0803 18.0201 23.0003 17.8201 23.0003 17.5801C23.0003 17.3401 23.0803 17.1301 23.2403 16.9501C23.4003 16.7701 23.6003 16.6801 23.8403 16.6801C24.0803 16.6801 24.2803 16.7801 24.4403 16.9801L28.1603 20.6401V10.3801C28.1603 10.1401 28.2403 9.93006 28.4003 9.75006C28.5603 9.57006 28.7603 9.48006 29.0003 9.48006C29.2403 9.48006 29.4503 9.57006 29.6303 9.75006C29.8103 9.93006 29.9003 10.1401 29.9003 10.3801V20.6401L33.5603 16.9801C33.7603 16.7801 33.9803 16.6801 34.2203 16.6801C34.4603 16.6801 34.6703 16.7701 34.8503 16.9501C35.0303 17.1301 35.1203 17.3401 35.1203 17.5801C35.1203 17.8201 35.0203 18.0201 34.8203 18.1801L29.9003 23.1001V30.3601L35.5403 24.7201C35.7403 24.5201 35.9603 24.4201 36.2003 24.4201C36.4403 24.4201 36.6503 24.5101 36.8303 24.6901C37.0103 24.8701 37.1003 25.0801 37.1003 25.3201C37.1003 25.5601 37.0003 25.7601 36.8003 25.9201L29.9003 32.8201V40.0801L35.5403 34.3801C35.7403 34.2201 35.9603 34.1401 36.2003 34.1401C36.4403 34.1401 36.6503 34.2201 36.8303 34.3801C37.0103 34.5401 37.1003 34.7401 37.1003 34.9801C37.1003 35.2201 37.0003 35.4401 36.8003 35.6401L29.9003 42.5401V49.7401L33.5603 46.0801C33.7603 45.8801 33.9803 45.7801 34.2203 45.7801C34.4603 45.7801 34.6703 45.8701 34.8503 46.0501C35.0303 46.2301 35.1203 46.4401 35.1203 46.6801C35.1203 46.9201 35.0203 47.1401 34.8203 47.3401L29.9003 52.2601V57.4801C31.8603 56.1201 33.6303 54.5101 35.2103 52.6501C36.7903 50.7901 38.1203 48.7601 39.2003 46.5601C41.8403 41.4401 43.1603 35.9201 43.1603 30.0001C43.1603 26.6401 42.7203 23.3501 41.8403 20.1301C40.9603 16.9101 39.6403 13.9001 37.8803 11.1001C37.7603 10.9001 37.7303 10.6801 37.7903 10.4401C37.8503 10.2001 37.9803 10.0201 38.1803 9.90006C38.3803 9.78006 38.6003 9.74006 38.8403 9.78006C39.0803 9.82006 39.2603 9.94006 39.3803 10.1401C40.9403 12.6201 42.2203 15.4201 43.2203 18.5401C44.5003 17.9001 46.0003 17.3401 47.7203 16.8601C49.6803 16.3401 51.5603 16.0601 53.3603 16.0201C53.7603 16.0201 54.0203 16.1801 54.1403 16.5001C54.9003 17.8201 55.5403 19.3601 56.0603 21.1201C56.5803 22.8801 56.9203 24.6001 57.0803 26.2801C57.0803 26.5201 57.0003 26.7301 56.8403 26.9101C56.6803 27.0901 56.4803 27.1801 56.2403 27.1801C56.0003 27.1801 55.7903 27.1101 55.6103 26.9701C55.4303 26.8301 55.3403 26.6401 55.3403 26.4001C55.1403 24.6401 54.8203 23.0601 54.3803 21.6601C54.0603 20.4201 53.5603 19.1401 52.8803 17.8201C51.3203 17.8601 49.7603 18.1001 48.2003 18.5401C46.7203 18.9401 45.2203 19.5201 43.7003 20.2801C44.5003 23.3601 44.9003 26.5601 44.9003 29.8801L48.6803 23.3401C48.8003 23.1401 48.9803 23.0101 49.2203 22.9501C49.4603 22.8901 49.6803 22.9201 49.8803 23.0401C50.0803 23.1601 50.2103 23.3401 50.2703 23.5801C50.3303 23.8201 50.3003 24.0401 50.1803 24.2401L46.0403 31.3801L49.9403 30.3601C50.1803 30.2801 50.4103 30.3001 50.6303 30.4201C50.8503 30.5401 50.9803 30.7201 51.0203 30.9601C51.0603 31.2001 51.0203 31.4201 50.9003 31.6201C50.7803 31.8201 50.6003 31.9601 50.3603 32.0401L44.8403 33.5401C44.8003 33.6201 44.6203 34.6201 44.3003 36.5401L44.1203 37.8601L48.1403 36.7801C48.3803 36.7001 48.6103 36.7201 48.8303 36.8401C49.0503 36.9601 49.1803 37.1401 49.2203 37.3801C49.2603 37.6201 49.2203 37.8401 49.1003 38.0401C48.9803 38.2401 48.8003 38.3801 48.5603 38.4601L43.6403 39.7801C43.3603 40.9401 42.8803 42.4401 42.2003 44.2801L44.0603 43.8001C44.3003 43.7601 44.5203 43.8001 44.7203 43.9201C44.9203 44.0401 45.0503 44.2101 45.1103 44.4301C45.1703 44.6501 45.1403 44.8601 45.0203 45.0601C44.9003 45.2601 44.7403 45.4001 44.5403 45.4801L41.3003 46.3801L40.7603 47.4001C40.0403 48.8001 39.2203 50.1601 38.3003 51.4801C38.5403 51.6001 38.7003 51.7901 38.7803 52.0501C38.8603 52.3101 38.8403 52.5401 38.7203 52.7401C38.6003 52.9401 38.4203 53.0801 38.1803 53.1601L36.7403 53.5201C35.2603 55.2401 33.7603 56.7001 32.2403 57.9001C35.5203 57.3401 38.6403 56.1001 41.6003 54.1801C44.5603 52.2601 47.1403 49.8201 49.3403 46.8601C51.5403 43.9001 53.1603 40.6801 54.2003 37.2001C54.8803 34.8401 55.2803 32.5401 55.4003 30.3001C55.4003 30.0601 55.4903 29.8501 55.6703 29.6701C55.8503 29.4901 56.0603 29.4101 56.3003 29.4301C56.5403 29.4501 56.7403 29.5501 56.9003 29.7301C57.0603 29.9101 57.1403 30.1201 57.1403 30.3601C57.0203 32.8001 56.6003 35.2601 55.8803 37.7401C54.8003 41.3801 53.1003 44.7701 50.7803 47.9101C48.4603 51.0501 45.7003 53.6401 42.5003 55.6801C38.3803 58.3201 34.0603 59.7601 29.5403 60.0001H28.5803Z" fill="#C19F5F"/>
</svg>
