<svg width="60" height="60" viewBox="0 0 60 60" fill="none" xmlns="http://www.w3.org/2000/svg">
<g clip-path="url(#clip0_219_155125)">
<path d="M53.0402 23.58C54.5202 21.62 55.4402 19.44 55.8002 17.04L55.9202 16.08C56.2402 13.68 55.9802 11.36 55.1402 9.12002C54.3002 6.88002 52.9602 4.96002 51.1202 3.36002L50.2802 2.70002C50.1602 2.62002 49.9602 2.48002 49.6802 2.28002L49.2602 2.04002C48.9402 1.88002 48.7202 1.74002 48.6002 1.62002L48.1802 1.44002C45.5802 0.160023 42.8402 -0.269978 39.9602 0.150021C37.0802 0.570023 34.5802 1.76002 32.4602 3.72002L28.0202 7.80002L23.6402 3.72002C21.4402 1.72002 18.8602 0.52002 15.9002 0.120022C12.9402 -0.27998 10.1502 0.22002 7.53021 1.62002C4.91021 3.02002 2.92021 5.04002 1.56021 7.68002C0.200206 10.32 -0.279794 13.12 0.120206 16.08L0.300206 17.04C0.540206 18.76 1.08021 20.36 1.92021 21.84C1.36021 22.84 0.920206 23.96 0.600206 25.2L0.360206 26.16C-0.0797941 27.96 -0.149794 29.77 0.150206 31.59C0.450206 33.41 1.08021 35.1 2.04021 36.66L14.5802 57.6C15.1802 58.56 16.0102 59.25 17.0702 59.67C18.1302 60.09 19.2002 60.14 20.2802 59.82L43.7402 53.04C45.4602 52.52 47.0402 51.69 48.4802 50.55C49.9202 49.41 51.1002 48.04 52.0202 46.44L52.5002 45.6C53.5002 43.88 54.1002 42.04 54.3002 40.08V40.02L54.5402 39.6C56.0202 37 56.6202 34.23 56.3402 31.29C56.0602 28.35 54.9602 25.78 53.0402 23.58ZM52.2602 7.74002C53.0202 8.94002 53.5402 10.23 53.8202 11.61C54.1002 12.99 54.1402 14.38 53.9402 15.78L53.8202 16.74C53.5802 18.3 53.0602 19.76 52.2602 21.12C51.4602 22.48 50.4402 23.64 49.2002 24.6L29.8802 39.48C29.3602 39.88 28.7602 40.08 28.0802 40.08C27.4002 40.08 26.7802 39.88 26.2202 39.48L22.9802 37.02L30.0602 29.94C30.7802 30.66 31.7002 30.92 32.8202 30.72C33.3002 30.6 33.7202 30.37 34.0802 30.03C34.4402 29.69 34.7202 29.3 34.9202 28.86L37.2602 22.86C38.3402 22.66 39.2502 22.19 39.9902 21.45C40.7302 20.71 41.1802 19.8 41.3402 18.72L47.3402 16.44C47.8202 16.28 48.2202 16 48.5402 15.6C48.8602 15.2 49.0802 14.76 49.2002 14.28C49.3202 13.8 49.3102 13.32 49.1702 12.84C49.0302 12.36 48.7802 11.94 48.4202 11.58L52.2602 7.74002ZM46.0202 30.36C46.5802 30.36 47.0502 30.56 47.4302 30.96C47.8102 31.36 48.0002 31.84 48.0002 32.4C48.0002 32.96 47.8102 33.43 47.4302 33.81C47.0502 34.19 46.5802 34.38 46.0202 34.38C45.4602 34.38 44.9802 34.19 44.5802 33.81C44.1802 33.43 43.9802 32.96 43.9802 32.4C43.9802 32.24 44.0202 32 44.1002 31.68C44.2602 31.28 44.5202 30.96 44.8802 30.72C45.2402 30.48 45.6202 30.36 46.0202 30.36ZM35.0402 38.04L37.2002 36.42C37.7202 36.46 38.1602 36.68 38.5202 37.08C38.8802 37.48 39.0402 37.96 39.0002 38.52C38.9602 39.08 38.7402 39.54 38.3402 39.9C37.9402 40.26 37.4802 40.43 36.9602 40.41C36.4402 40.39 35.9802 40.18 35.5802 39.78C35.1802 39.38 34.9802 38.92 34.9802 38.4L35.0402 38.04ZM28.0202 43.38C28.0202 43.9 27.8502 44.34 27.5102 44.7C27.1702 45.06 26.7502 45.27 26.2502 45.33C25.7502 45.39 25.3002 45.29 24.9002 45.03C24.5002 44.77 24.2302 44.4 24.0902 43.92C23.9502 43.44 23.9902 42.97 24.2102 42.51C24.4302 42.05 24.7602 41.72 25.2002 41.52L25.5602 41.46C26.2402 41.82 26.8802 42.02 27.4802 42.06C27.8402 42.42 28.0202 42.86 28.0202 43.38ZM18.1802 33.36L25.8002 25.68L28.6802 28.5L21.3602 35.82L19.7402 34.5L18.1802 33.36ZM19.0202 36.48C18.9802 36.96 18.7802 37.38 18.4202 37.74C18.0602 38.1 17.6402 38.31 17.1602 38.37C16.6802 38.43 16.2302 38.3 15.8102 37.98C15.3902 37.66 15.1302 37.25 15.0302 36.75C14.9302 36.25 15.0102 35.79 15.2702 35.37C15.5302 34.95 15.9002 34.66 16.3802 34.5L19.0202 36.48ZM38.5802 15.78C39.1402 16.38 39.4202 17.1 39.4202 17.94C39.4202 18.78 39.1302 19.49 38.5502 20.07C37.9702 20.65 37.2602 20.94 36.4202 20.94C35.5802 20.94 34.8702 20.65 34.2902 20.07C33.7102 19.49 33.4202 18.78 33.4202 17.94C33.4202 17.1 33.7102 16.39 34.2902 15.81C34.8702 15.23 35.5802 14.94 36.4202 14.94C37.2602 14.94 37.9802 15.22 38.5802 15.78ZM37.7402 13.14L39.7802 7.74002C39.9002 7.38002 40.1402 7.16002 40.5002 7.08002C40.8602 7.00002 41.1802 7.10002 41.4602 7.38002L46.9802 12.9C47.2602 13.18 47.3602 13.48 47.2802 13.8C47.1602 14.2 46.9402 14.46 46.6202 14.58L41.2202 16.62C41.0202 15.74 40.6102 14.99 39.9902 14.37C39.3702 13.75 38.6202 13.32 37.7402 13.08V13.14ZM35.1602 22.74L33.0602 28.14C32.9402 28.5 32.7002 28.71 32.3402 28.77C31.9802 28.83 31.6802 28.74 31.4402 28.5L25.8602 22.92C25.6202 22.68 25.5302 22.38 25.5902 22.02C25.6502 21.66 25.8602 21.42 26.2202 21.3L31.6202 19.2C31.8202 20.08 32.2402 20.84 32.8802 21.48C33.5202 22.12 34.2802 22.54 35.1602 22.74ZM48.0602 3.66002C48.3002 3.78002 48.6602 4.00002 49.1402 4.32002L50.0402 5.10002L50.2202 5.22002L51.0602 6.12002L47.0402 10.14L44.2202 7.32002L47.9402 3.60002C47.9802 3.60002 48.0202 3.62002 48.0602 3.66002ZM6.96021 4.32002C8.48021 3.20002 10.1602 2.49002 12.0002 2.19002C13.8402 1.89002 15.6602 2.00002 17.4602 2.52002C19.2602 3.04002 20.8602 3.94002 22.2602 5.22002L27.3602 9.90002C27.5602 10.06 27.7902 10.14 28.0502 10.14C28.3102 10.14 28.5402 10.06 28.7402 9.90002L33.7802 5.22002C35.4202 3.70002 37.3402 2.71002 39.5402 2.25002C41.7402 1.79002 43.9002 1.94002 46.0202 2.70002L42.7802 5.88002C42.4202 5.56002 42.0002 5.33002 41.5202 5.19002C41.0402 5.05002 40.5602 5.04002 40.0802 5.16002C39.6002 5.28002 39.1602 5.50002 38.7602 5.82002C38.3602 6.14002 38.0802 6.54002 37.9202 7.02002L35.6402 13.02C34.5602 13.18 33.6502 13.63 32.9102 14.37C32.1702 15.11 31.7002 16.02 31.5002 17.1L25.5002 19.44C25.0602 19.64 24.6702 19.92 24.3302 20.28C23.9902 20.64 23.7702 21.07 23.6702 21.57C23.5702 22.07 23.5902 22.56 23.7302 23.04C23.8702 23.52 24.1002 23.94 24.4202 24.3L16.6202 32.1L6.84021 24.6C5.60021 23.64 4.58021 22.48 3.78021 21.12C2.98021 19.76 2.48021 18.3 2.28021 16.74L2.10021 15.78C1.82021 13.58 2.11021 11.45 2.97021 9.39002C3.83021 7.33002 5.16021 5.64002 6.96021 4.32002ZM50.7602 44.58L50.2802 45.42C49.5202 46.78 48.5202 47.96 47.2802 48.96C46.0402 49.96 44.6602 50.68 43.1402 51.12L19.7402 57.9C19.1002 58.06 18.4602 58.02 17.8202 57.78C17.1802 57.54 16.6802 57.14 16.3202 56.58L3.72021 35.64C2.92021 34.28 2.40021 32.82 2.16021 31.26C1.92021 29.7 1.98021 28.16 2.34021 26.64V26.52C2.74021 28.12 3.30021 29.5 4.02021 30.66L16.6202 51.6C17.1802 52.56 17.9902 53.25 19.0502 53.67C20.1102 54.09 21.1802 54.14 22.2602 53.82L45.7202 46.98C47.6402 46.46 49.4202 45.5 51.0602 44.1L50.7602 44.58ZM52.8002 38.58L52.3202 39.42C51.5202 40.82 50.5002 42.01 49.2602 42.99C48.0202 43.97 46.6602 44.66 45.1802 45.06L21.7202 51.9C21.0402 52.1 20.3902 52.07 19.7702 51.81C19.1502 51.55 18.6602 51.12 18.3002 50.52L5.76021 29.64C4.88021 28.2 4.32021 26.58 4.08021 24.78C4.52021 25.26 5.04021 25.74 5.64021 26.22L14.6402 33.12C13.9602 33.64 13.4802 34.31 13.2002 35.13C12.9202 35.95 12.9102 36.76 13.1702 37.56C13.4302 38.36 13.9002 39.02 14.5802 39.54C15.2602 40.06 16.0202 40.34 16.8602 40.38C17.7002 40.42 18.4802 40.2 19.2002 39.72C19.9202 39.24 20.4402 38.6 20.7602 37.8L20.8802 37.92L23.7002 40.08C22.8202 40.68 22.2702 41.5 22.0502 42.54C21.8302 43.58 22.0002 44.56 22.5602 45.48C23.1202 46.4 23.9002 47 24.9002 47.28C25.9002 47.56 26.8702 47.46 27.8102 46.98C28.7502 46.5 29.4002 45.76 29.7602 44.76C30.1202 43.76 30.1002 42.78 29.7002 41.82C30.2202 41.62 30.6802 41.38 31.0802 41.1L33.1802 39.48C33.4202 40.36 33.8902 41.06 34.5902 41.58C35.2902 42.1 36.0902 42.36 36.9902 42.36C37.8902 42.36 38.7002 42.09 39.4202 41.55C40.1402 41.01 40.6202 40.3 40.8602 39.42C41.1002 38.54 41.0602 37.69 40.7402 36.87C40.4202 36.05 39.8602 35.4 39.0602 34.92L42.0602 32.64C42.1402 33.64 42.5302 34.5 43.2302 35.22C43.9302 35.94 44.7802 36.33 45.7802 36.39C46.7802 36.45 47.6802 36.17 48.4802 35.55C49.2802 34.93 49.7702 34.13 49.9502 33.15C50.1302 32.17 49.9702 31.24 49.4702 30.36C48.9702 29.48 48.2402 28.9 47.2802 28.62L50.4002 26.22C50.8802 25.86 51.3202 25.48 51.7202 25.08L52.5002 26.16C53.6602 28.04 54.2702 30.1 54.3302 32.34C54.3902 34.58 53.8802 36.66 52.8002 38.58Z" fill="#C19F5F"/>
</g>
<defs>
<clipPath id="clip0_219_155125">
<rect width="60" height="60" fill="white" transform="matrix(1 0 0 -1 0 60)"/>
</clipPath>
</defs>
</svg>
