<svg width="60" height="60" viewBox="0 0 60 60" fill="none" xmlns="http://www.w3.org/2000/svg">
<g clip-path="url(#clip0_219_155128)">
<path d="M55.1997 21.66C55.6797 21.38 56.0697 21 56.3697 20.52C56.6697 20.04 56.8197 19.54 56.8197 19.02C56.8597 17.02 56.2697 14.9599 55.0497 12.84C53.8297 10.72 52.1797 8.85995 50.0997 7.25995C49.8997 7.09995 49.6797 7.02995 49.4397 7.04995C49.1997 7.06995 48.9997 7.17995 48.8397 7.37995C48.6797 7.57995 48.6197 7.79995 48.6597 8.03995C48.6997 8.27995 48.8197 8.47995 49.0197 8.63995C50.8997 10.08 52.3897 11.7299 53.4897 13.59C54.5897 15.45 55.1197 17.24 55.0797 18.9599C55.0797 19.4399 54.8397 19.82 54.3597 20.1C52.9597 20.86 51.2297 21.2 49.1697 21.1199C47.1097 21.04 45.0797 20.56 43.0797 19.68H43.0197L42.9597 19.56C41.8397 18.08 40.9797 17.06 40.3797 16.5C39.3397 15.66 38.1797 15.24 36.8997 15.24C35.8597 14.08 35.0697 12.84 34.5297 11.52C33.9897 10.2 33.7197 8.91995 33.7197 7.67995L38.8797 10.86L39.3597 14.88C39.3997 15.1199 39.5197 15.31 39.7197 15.45C39.9197 15.59 40.1397 15.6399 40.3797 15.6C40.6197 15.56 40.8097 15.45 40.9497 15.27C41.0897 15.09 41.1397 14.88 41.0997 14.6399L40.7997 12L43.4397 13.6199L43.9197 17.6399C43.9597 17.88 44.0597 18.07 44.2197 18.2099C44.3797 18.35 44.5797 18.42 44.8197 18.42C45.0597 18.42 45.2697 18.32 45.4497 18.1199C45.6297 17.92 45.6997 17.68 45.6597 17.4L45.3597 14.82L50.5197 18C50.7197 18.1199 50.9397 18.15 51.1797 18.09C51.4197 18.0299 51.5997 17.9 51.7197 17.7C51.8397 17.5 51.8697 17.2799 51.8097 17.04C51.7497 16.7999 51.6197 16.6199 51.4197 16.5L49.3197 15.18L50.6397 14.7C50.8797 14.6199 51.0497 14.47 51.1497 14.25C51.2497 14.0299 51.2597 13.81 51.1797 13.59C51.0997 13.3699 50.9497 13.2099 50.7297 13.11C50.5097 13.01 50.2797 12.9799 50.0397 13.02L47.3997 13.9799L44.7597 12.36L46.9197 11.6399C47.1197 11.56 47.2697 11.41 47.3697 11.19C47.4697 10.97 47.4897 10.74 47.4297 10.5C47.3697 10.26 47.2297 10.09 47.0097 9.98995C46.7897 9.88995 46.5597 9.87995 46.3197 9.95995L42.8397 11.22L40.1997 9.59995L42.3597 8.81995C42.5997 8.73995 42.7697 8.58995 42.8697 8.36995C42.9697 8.14995 42.9797 7.92995 42.8997 7.70995C42.8197 7.48995 42.6697 7.32995 42.4497 7.22995C42.2297 7.12995 41.9997 7.09995 41.7597 7.13995L38.2797 8.39995L34.6797 6.17995C36.1597 5.41995 37.8697 5.06995 39.8097 5.12995C41.7497 5.18995 43.6997 5.67995 45.6597 6.59995C45.8597 6.67995 46.0797 6.67995 46.3197 6.59995C46.5597 6.51995 46.7297 6.36995 46.8297 6.14995C46.9297 5.92995 46.9397 5.70995 46.8597 5.48995C46.7797 5.26995 46.6197 5.09995 46.3797 4.97995C44.0597 3.89995 41.7297 3.35995 39.3897 3.35995C37.0497 3.35995 34.9997 3.89995 33.2397 4.97995L32.9397 5.15995L31.1997 4.01995C30.9997 3.93995 30.8397 3.87995 30.7197 3.83995C30.6797 2.99995 30.5997 2.23995 30.4797 1.55995C30.3597 1.07995 30.2797 0.779953 30.2397 0.65995C30.1597 0.419952 30.0197 0.239952 29.8197 0.119953C29.6197 -4.95911e-05 29.4097 -0.02005 29.1897 0.0599518C28.9697 0.13995 28.7997 0.279953 28.6797 0.47995C28.5597 0.679951 28.5197 0.899952 28.5597 1.13995L28.7397 1.85995C28.8597 2.49995 28.9397 3.19995 28.9797 3.95995L27.0597 5.15995C26.3397 4.59995 25.3597 4.15995 24.1197 3.83995C22.6797 3.43995 21.1797 3.29995 19.6197 3.41995C16.7397 3.61995 13.9997 4.55995 11.3997 6.23995C8.91969 7.79995 6.92969 9.75995 5.42969 12.1199C3.92969 14.4799 3.17969 16.7799 3.17969 19.02C3.17969 19.54 3.32969 20.04 3.62969 20.52C3.92969 21 4.31969 21.38 4.79969 21.66C6.19969 22.38 7.83969 22.7799 9.71969 22.86C11.3597 22.9 13.0597 22.7 14.8197 22.26L13.3197 24.4799C10.5997 28.52 8.51969 31.3999 7.07969 33.1199C5.03969 35.5599 3.93969 38.3599 3.77969 41.5199C3.65969 44.3999 4.29969 47.3999 5.69969 50.5199C6.97969 53.3999 8.77969 56.0399 11.0997 58.4399C11.6597 59.0399 12.3397 59.4799 13.1397 59.7599C13.9397 60.0399 14.7597 60.0999 15.5997 59.9399C18.2797 59.4599 20.8397 58.6199 23.2797 57.4199C25.9197 56.0999 28.0997 54.5199 29.8197 52.6799C31.6197 54.6399 33.9397 56.2799 36.7797 57.5999C39.1397 58.7199 41.5797 59.4999 44.0997 59.9399C44.9397 60.0999 45.7597 60.0399 46.5597 59.7599C47.3597 59.4799 48.0397 59.0399 48.5997 58.4399C50.9197 56.0399 52.7197 53.3999 53.9997 50.5199C55.3997 47.4399 56.0397 44.4599 55.9197 41.5799C55.7597 38.3799 54.6597 35.5599 52.6197 33.1199L51.1197 31.2599C50.9597 31.0599 50.7597 30.9399 50.5197 30.8999C50.2797 30.8599 50.0597 30.9199 49.8597 31.0799C49.6597 31.2399 49.5497 31.4399 49.5297 31.6799C49.5097 31.9199 49.5797 32.1199 49.7397 32.2799L49.9197 32.5199C50.5197 33.3199 50.9797 33.8999 51.2997 34.2599C52.9797 36.2199 53.9197 38.4799 54.1197 41.0399C54.3197 43.3999 53.9397 45.8599 52.9797 48.4199C52.0997 50.8199 50.7797 53.1199 49.0197 55.3199C49.4997 52.0799 49.4797 48.7799 48.9597 45.4199C48.3997 41.9399 47.3197 38.6799 45.7197 35.6399C44.4397 33.1999 42.9397 30.1 41.2197 26.34L40.6797 25.2C38.5197 20.6 37.1397 17.88 36.5397 17.04V16.9799C37.5397 16.9 38.4597 17.22 39.2997 17.9399C39.7797 18.34 40.4597 19.16 41.3397 20.4L41.7597 20.9399C42.1997 21.54 42.8797 22.4799 43.7997 23.76L45.1197 25.68C45.3997 26.16 45.8797 26.88 46.5597 27.84L47.2797 28.92C47.4397 29.12 47.6397 29.2499 47.8797 29.3099C48.1197 29.3699 48.3397 29.32 48.5397 29.16C48.7397 29 48.8597 28.8099 48.8997 28.59C48.9397 28.37 48.8797 28.16 48.7197 27.9599L46.5597 24.72L44.8197 22.2C46.5797 22.6399 48.1997 22.86 49.6797 22.86C51.8797 22.86 53.7197 22.4599 55.1997 21.66ZM30.7797 5.87995L32.0397 6.65995C32.0397 6.77995 32.0197 6.87995 31.9797 6.95995C31.8997 8.35995 32.1097 9.80995 32.6097 11.31C33.1097 12.81 33.8597 14.24 34.8597 15.6L34.7397 15.66C34.4997 15.7 34.3397 15.76 34.2597 15.84C33.2597 14.68 32.3997 13.16 31.6797 11.2799C31.1997 10.1199 30.8597 9.05995 30.6597 8.09995C30.7397 7.05995 30.7797 6.31995 30.7797 5.87995ZM29.9397 11.82C30.6997 13.74 31.5797 15.32 32.5797 16.56C32.1397 16.72 31.6597 16.84 31.1397 16.92C30.6197 17 30.1797 17.1 29.8197 17.22C29.3797 17.06 28.9397 16.9599 28.4997 16.92L28.0797 16.86C28.8397 15.2999 29.4597 13.6199 29.9397 11.82ZM27.9597 6.65995L29.0397 5.99995C28.8797 9.67995 27.9997 13.1199 26.3997 16.32L26.2197 16.2L26.0397 16.1399L25.0797 15.66L25.4397 15.1199C25.7997 14.6399 26.0397 14.2799 26.1597 14.04C26.9997 12.68 27.5597 11.24 27.8397 9.71995C28.0797 8.47995 28.1197 7.45995 27.9597 6.65995ZM5.63969 20.1C5.15969 19.82 4.91969 19.4399 4.91969 18.9599C4.91969 17 5.61969 14.9799 7.01969 12.9C8.49969 10.66 10.3797 8.85995 12.6597 7.49995C14.8197 6.21995 17.0497 5.45995 19.3497 5.21995C21.6497 4.97995 23.6597 5.29995 25.3797 6.17995L21.7197 8.39995L18.2397 7.13995C17.9997 7.09995 17.7697 7.12995 17.5497 7.22995C17.3297 7.32995 17.1797 7.48995 17.0997 7.70995C17.0197 7.92995 17.0297 8.14995 17.1297 8.36995C17.2297 8.58995 17.3997 8.73995 17.6397 8.81995L19.7997 9.59995L17.1597 11.22L13.6797 9.95995C13.4797 9.87995 13.2597 9.88995 13.0197 9.98995C12.7797 10.09 12.6197 10.25 12.5397 10.47C12.4597 10.69 12.4797 10.92 12.5997 11.16C12.7197 11.4 12.8797 11.56 13.0797 11.6399L15.2397 12.42L12.5997 13.9799L9.95969 13.02C9.71969 12.9799 9.48969 13.01 9.26969 13.11C9.04969 13.2099 8.89969 13.36 8.81969 13.56C8.73969 13.76 8.74969 13.9799 8.84969 14.22C8.94969 14.4599 9.11969 14.6199 9.35969 14.7L10.6797 15.18L8.57969 16.5C8.37969 16.6199 8.24969 16.7999 8.18969 17.04C8.12969 17.2799 8.15969 17.5 8.27969 17.7C8.39969 17.9 8.57969 18.0299 8.81969 18.09C9.05969 18.15 9.27969 18.1199 9.47969 18L14.6397 14.82L14.3397 17.4C14.2997 17.68 14.3697 17.92 14.5497 18.1199C14.7297 18.32 14.9397 18.42 15.1797 18.42C15.4197 18.42 15.6197 18.35 15.7797 18.2099C15.9397 18.07 16.0397 17.88 16.0797 17.6399L16.5597 13.6199L19.1997 12L18.8997 14.6399C18.8597 14.92 18.9297 15.15 19.1097 15.33C19.2897 15.51 19.4997 15.6 19.7397 15.6C19.9797 15.6 20.1797 15.5299 20.3397 15.3899C20.4997 15.25 20.5997 15.08 20.6397 14.88L21.1197 10.86L26.2797 7.67995C26.3197 10.16 25.3797 12.56 23.4597 14.88C21.6597 17 19.4597 18.6199 16.8597 19.74C15.0197 20.54 13.1197 20.9799 11.1597 21.06C8.99969 21.22 7.15969 20.9 5.63969 20.1ZM10.6797 55.3199C8.91969 53.0799 7.57969 50.7799 6.65969 48.4199C5.69969 45.8199 5.33969 43.3599 5.57969 41.0399C5.77969 38.4799 6.71969 36.2199 8.39969 34.2599C9.83969 32.5399 11.8597 29.76 14.4597 25.92C15.8997 23.7999 16.9597 22.26 17.6397 21.2999C19.5197 20.4599 21.0597 19.52 22.2597 18.4799C21.4997 19.92 20.2397 22.52 18.4797 26.2799C16.4797 30.6 14.9797 33.7199 13.9797 35.6399C12.3797 38.6799 11.2997 41.9399 10.7397 45.4199C10.1797 48.8199 10.1597 52.1199 10.6797 55.3199ZM14.4597 58.2599C13.9797 58.2199 13.4997 58.0599 13.0197 57.7799C12.0997 54.7799 11.8397 51.3999 12.2397 47.6399C12.6397 43.5999 13.7397 39.8799 15.5397 36.4799C16.4997 34.5999 17.9997 31.4799 20.0397 27.1199C21.3597 24.2799 22.2997 22.32 22.8597 21.24C23.7397 19.4 24.3997 18.24 24.8397 17.76C24.8797 17.68 24.9397 17.6399 25.0197 17.6399C25.0997 17.6399 25.1597 17.66 25.1997 17.7C26.0797 18.18 26.9797 18.4799 27.8997 18.6C28.1397 18.6399 28.3097 18.68 28.4097 18.72C28.5097 18.76 28.5597 18.84 28.5597 18.9599C28.5997 19.6 28.4397 20.88 28.0797 22.7999C27.8797 23.9599 27.4997 26.02 26.9397 28.9799C25.9797 33.9 25.3397 37.4199 25.0197 39.5399C24.4597 43.3399 23.1597 46.9999 21.1197 50.5199C19.1997 53.7599 16.9797 56.3399 14.4597 58.2599ZM17.8197 57.6599C20.1397 55.3399 22.0597 52.6599 23.5797 49.6199C25.2197 46.4199 26.2797 43.1399 26.7597 39.7799C27.0397 37.6999 27.6597 34.2399 28.6197 29.3999C29.2197 26.5199 29.6197 24.5 29.8197 23.34C30.1397 21.38 30.2997 20.04 30.2997 19.32C31.0997 19.7999 31.6397 20.4599 31.9197 21.2999C32.0797 21.9 32.1797 22.82 32.2197 24.06C32.2597 25.58 32.2197 28.1199 32.0997 31.6799C31.9397 36.3599 31.9197 39.7799 32.0397 41.9399C32.2397 44.5399 31.6797 46.9399 30.3597 49.1399C29.1597 51.1799 27.3997 52.9399 25.0797 54.4199C22.9597 55.8199 20.5397 56.8999 17.8197 57.6599ZM30.9597 51.3599C32.7197 49.0799 33.6797 46.5599 33.8397 43.7999C34.5597 46.4399 35.6397 48.9799 37.0797 51.4199C38.4397 53.6999 40.0397 55.7599 41.8797 57.5999C39.8397 57.0399 37.9197 56.2599 36.1197 55.2599C34.0797 54.1399 32.3597 52.8399 30.9597 51.3599ZM39.5997 27.06C41.4397 31.0599 42.9597 34.1999 44.1597 36.4799C45.9597 39.8399 47.0597 43.5399 47.4597 47.5799C47.8597 51.3799 47.5997 54.7799 46.6797 57.7799C46.1597 58.0599 45.6797 58.2199 45.2397 58.2599C42.7197 56.3799 40.4997 53.7999 38.5797 50.5199C36.5397 47.0399 35.2397 43.3799 34.6797 39.5399C34.5197 38.5399 34.2397 36.8599 33.8397 34.4999L33.7797 34.1399L33.8397 31.5599C33.9597 28.1199 34.0197 25.84 34.0197 24.72C34.0197 23 33.8797 21.7 33.5997 20.82C33.3197 19.9399 32.8397 19.18 32.1597 18.54C32.9197 18.38 33.6797 18.1 34.4397 17.7H34.4997V17.6399C34.6197 17.6 34.7397 17.6399 34.8597 17.76C35.4197 18.4799 36.8197 21.2 39.0597 25.92L39.5997 27.06Z" fill="#C19F5F"/>
</g>
<defs>
<clipPath id="clip0_219_155128">
<rect width="60" height="60" fill="white" transform="matrix(1 0 0 -1 0 60)"/>
</clipPath>
</defs>
</svg>
